<svg width="150" height="150" viewBox="0 0 150 150" fill="none" xmlns="http://www.w3.org/2000/svg">
<circle cx="74.5" cy="75.5" r="62.5" fill="white"/>
<circle cx="74.5" cy="75.5" r="62.5" fill="white"/>
<circle cx="74.5" cy="75.5" r="62.5" fill="white"/>
<path d="M29.9602 127.273C18.7643 117.626 10.9615 104.639 7.70062 90.2248C4.43973 75.8104 5.89305 60.7298 11.8466 47.2034C17.8002 33.677 27.9394 22.4195 40.7715 15.0883C53.6035 7.75716 68.4504 4.73969 83.1262 6.48019C97.802 8.22069 111.531 14.6272 122.293 24.7565C133.054 34.8857 140.279 48.2026 142.903 62.7463C145.528 77.29 143.413 92.2922 136.871 105.544C130.329 118.796 119.705 129.597 106.564 136.357L105.918 135.101C118.79 128.479 129.197 117.899 135.605 104.919C142.013 91.9382 144.084 77.2431 141.513 62.9971C138.942 48.7511 131.865 35.7069 121.324 25.785C110.783 15.8631 97.3352 9.58774 82.9599 7.88287C68.5845 6.178 54.0416 9.1337 41.4722 16.3148C28.9028 23.4959 18.9711 34.523 13.1394 47.7724C7.30775 61.0219 5.88418 75.7938 9.07832 89.9131C12.2725 104.032 19.9155 116.753 30.8822 126.202L29.9602 127.273Z" fill="white" fill-opacity="0.9"/>
<path d="M119.913 135.065C105.024 146.198 86.5308 151.405 68.0205 149.675C49.5102 147.944 32.3021 139.401 19.7341 125.702L20.8655 124.664C33.1762 138.083 50.032 146.451 68.1634 148.146C86.2948 149.841 104.409 144.741 118.994 133.836L119.913 135.065Z" fill="white" fill-opacity="0.9"/>
<path d="M92.0311 72.1555C94.0347 73.3033 94.0446 76.1896 92.0491 77.3512L68.4972 91.0614C66.5012 92.2233 63.9959 90.7886 63.988 88.479L63.8939 61.2217C63.8859 58.9122 66.3812 57.4602 68.3852 58.6083L92.0311 72.1555Z" fill="#FF3E66"/>
</svg>
